<?xml version="1.0" encoding="UTF-8" standalone="no"?>
<!DOCTYPE svg PUBLIC "-//W3C//DTD SVG 1.1//EN"
 "http://www.w3.org/Graphics/SVG/1.1/DTD/svg11.dtd">
<!-- Generated by graphviz version 2.38.0 (20140413.2041)
 -->
<!-- Title: Control&#45;flow graph for function &#39;die(str)&#39;. Pages: 1 -->
<svg width="316pt" height="278pt"
 viewBox="0.00 0.00 316.00 278.00" xmlns="http://www.w3.org/2000/svg" xmlns:xlink="http://www.w3.org/1999/xlink">
<g id="graph0" class="graph" transform="scale(1 1) rotate(0) translate(4 274)">
<title>Control&#45;flow graph for function &#39;die(str)&#39;.</title>
<polygon fill="white" stroke="none" points="-4,4 -4,-274 312,-274 312,4 -4,4"/>
<text text-anchor="middle" x="154" y="-7.8" font-family="Times,serif" font-size="14.00">Control&#45;flow graph for function &#39;die(str)&#39;.</text>
<!-- Node0x1b42070 -->
<g id="node1" class="node"><title>Node0x1b42070</title>
<polygon fill="none" stroke="black" points="124.5,-231.5 124.5,-269.5 183.5,-269.5 183.5,-231.5 124.5,-231.5"/>
<text text-anchor="start" x="132.5" y="-254.3" font-family="Times,serif" font-size="14.00">entry:</text>
<text text-anchor="start" x="132.5" y="-239.3" font-family="Times,serif" font-size="14.00"> str</text>
</g>
<!-- Node0x1b95980 -->
<g id="node2" class="node"><title>Node0x1b95980</title>
<polygon fill="none" stroke="black" points="20.5,-96.5 20.5,-194.5 287.5,-194.5 287.5,-96.5 20.5,-96.5"/>
<text text-anchor="start" x="28.5" y="-179.3" font-family="Times,serif" font-size="14.00">0x804885b:</text>
<text text-anchor="start" x="28.5" y="-164.3" font-family="Times,serif" font-size="14.00"> puts(IntToPtrCastExpr&lt;ptr&gt;(str))</text>
<text text-anchor="start" x="28.5" y="-149.3" font-family="Times,serif" font-size="14.00"> fflush(g1)</text>
<text text-anchor="start" x="28.5" y="-134.3" font-family="Times,serif" font-size="14.00"> perror(&quot;Error printed by perror&quot;)</text>
<text text-anchor="start" x="28.5" y="-119.3" font-family="Times,serif" font-size="14.00"> exit(1)</text>
<text text-anchor="start" x="28.5" y="-104.3" font-family="Times,serif" font-size="14.00"> # UNREACHABLE</text>
</g>
<!-- Node0x1b42070&#45;&gt;Node0x1b95980 -->
<g id="edge1" class="edge"><title>Node0x1b42070&#45;&gt;Node0x1b95980</title>
<path fill="none" stroke="black" d="M154,-231.086C154,-223.607 154,-214.513 154,-205.097"/>
<polygon fill="black" stroke="black" points="157.5,-204.814 154,-194.814 150.5,-204.815 157.5,-204.814"/>
</g>
<!-- Node0x1b96270 -->
<g id="node3" class="node"><title>Node0x1b96270</title>
<polygon fill="none" stroke="black" points="127,-23.5 127,-59.5 181,-59.5 181,-23.5 127,-23.5"/>
<text text-anchor="start" x="135" y="-37.8" font-family="Times,serif" font-size="14.00">exit:</text>
</g>
<!-- Node0x1b95980&#45;&gt;Node0x1b96270 -->
<g id="edge2" class="edge"><title>Node0x1b95980&#45;&gt;Node0x1b96270</title>
<path fill="none" stroke="black" d="M154,-96.4868C154,-87.2893 154,-77.9618 154,-69.7064"/>
<polygon fill="black" stroke="black" points="157.5,-69.5725 154,-59.5725 150.5,-69.5725 157.5,-69.5725"/>
</g>
</g>
</svg>
