<?xml version="1.0" encoding="UTF-8" standalone="no"?>
<!DOCTYPE svg PUBLIC "-//W3C//DTD SVG 1.1//EN"
 "http://www.w3.org/Graphics/SVG/1.1/DTD/svg11.dtd">
<!-- Generated by graphviz version 2.38.0 (20140413.2041)
 -->
<!-- Title: Control&#45;flow graph for function &#39;main(argc, **argv)&#39;. Pages: 1 -->
<svg width="2118pt" height="3776pt"
 viewBox="0.00 0.00 2118.40 3776.00" xmlns="http://www.w3.org/2000/svg" xmlns:xlink="http://www.w3.org/1999/xlink">
<g id="graph0" class="graph" transform="scale(1 1) rotate(0) translate(4 3772)">
<title>Control&#45;flow graph for function &#39;main(argc, **argv)&#39;.</title>
<polygon fill="white" stroke="none" points="-4,4 -4,-3772 2114.4,-3772 2114.4,4 -4,4"/>
<text text-anchor="middle" x="1055.2" y="-7.8" font-family="Times,serif" font-size="14.00">Control&#45;flow graph for function &#39;main(argc, **argv)&#39;.</text>
<!-- Node0x1c05bf0 -->
<g id="node1" class="node"><title>Node0x1c05bf0</title>
<polygon fill="none" stroke="black" points="1526.9,-3714.5 1526.9,-3767.5 1585.9,-3767.5 1585.9,-3714.5 1526.9,-3714.5"/>
<text text-anchor="start" x="1534.9" y="-3752.3" font-family="Times,serif" font-size="14.00">entry:</text>
<text text-anchor="start" x="1534.9" y="-3737.3" font-family="Times,serif" font-size="14.00"> argc</text>
<text text-anchor="start" x="1534.9" y="-3722.3" font-family="Times,serif" font-size="14.00"> argv</text>
</g>
<!-- Node0x1b65f90 -->
<g id="node2" class="node"><title>Node0x1b65f90</title>
<polygon fill="none" stroke="black" points="1257.4,-3638.5 1257.4,-3676.5 1855.4,-3676.5 1855.4,-3638.5 1257.4,-3638.5"/>
<text text-anchor="start" x="1265.4" y="-3661.3" font-family="Times,serif" font-size="14.00">fds</text>
<text text-anchor="start" x="1265.4" y="-3646.3" font-family="Times,serif" font-size="14.00"> sock_fd = socket((AF_INET &#45;&gt; 2), (SOCK_DGRAM &#45;&gt; 2), (IPPROTO_UDP &#45;&gt; 17))</text>
</g>
<!-- Node0x1c05bf0&#45;&gt;Node0x1b65f90 -->
<g id="edge1" class="edge"><title>Node0x1c05bf0&#45;&gt;Node0x1b65f90</title>
<path fill="none" stroke="black" d="M1556.4,-3714.21C1556.4,-3705.53 1556.4,-3695.79 1556.4,-3686.91"/>
<polygon fill="black" stroke="black" points="1559.9,-3686.64 1556.4,-3676.64 1552.9,-3686.64 1559.9,-3686.64"/>
</g>
<!-- Node0x1b57d20 -->
<g id="node3" class="node"><title>Node0x1b57d20</title>
<polygon fill="none" stroke="black" points="1484.9,-3564.5 1484.9,-3600.5 1627.9,-3600.5 1627.9,-3564.5 1484.9,-3564.5"/>
<text text-anchor="start" x="1492.9" y="-3578.8" font-family="Times,serif" font-size="14.00">if (sock_fd &lt;= 0):</text>
</g>
<!-- Node0x1b65f90&#45;&gt;Node0x1b57d20 -->
<g id="edge2" class="edge"><title>Node0x1b65f90&#45;&gt;Node0x1b57d20</title>
<path fill="none" stroke="black" d="M1556.4,-3638.46C1556.4,-3630.2 1556.4,-3620.24 1556.4,-3611.07"/>
<polygon fill="black" stroke="black" points="1559.9,-3610.83 1556.4,-3600.83 1552.9,-3610.83 1559.9,-3610.83"/>
</g>
<!-- Node0x1b61b40 -->
<g id="node4" class="node"><title>Node0x1b61b40</title>
<polygon fill="none" stroke="black" points="1176.4,-3474.5 1176.4,-3512.5 1580.4,-3512.5 1580.4,-3474.5 1176.4,-3474.5"/>
<text text-anchor="start" x="1184.4" y="-3497.3" font-family="Times,serif" font-size="14.00">0x80488c9:</text>
<text text-anchor="start" x="1184.4" y="-3482.3" font-family="Times,serif" font-size="14.00"> die(PtrToIntCastExpr&lt;int32&gt;(&quot;can&#39;t create socket&quot;))</text>
</g>
<!-- Node0x1b57d20&#45;&gt;Node0x1b61b40 -->
<g id="edge3" class="edge"><title>Node0x1b57d20&#45;&gt;Node0x1b61b40</title>
<path fill="none" stroke="black" d="M1521.23,-3564.31C1493.5,-3550.76 1454.6,-3531.75 1424.4,-3516.99"/>
<polygon fill="black" stroke="black" points="1425.85,-3513.8 1415.33,-3512.55 1422.78,-3520.09 1425.85,-3513.8"/>
<text text-anchor="middle" x="1531.9" y="-3534.8" font-family="Times,serif" font-size="14.00">sock_fd &lt;= 0</text>
</g>
<!-- Node0x1c1e530 -->
<g id="node5" class="node"><title>Node0x1c1e530</title>
<polygon fill="none" stroke="black" points="1382.9,-3323.5 1382.9,-3436.5 1717.9,-3436.5 1717.9,-3323.5 1382.9,-3323.5"/>
<text text-anchor="start" x="1390.9" y="-3421.3" font-family="Times,serif" font-size="14.00">0x80488d9:</text>
<text text-anchor="start" x="1390.9" y="-3406.3" font-family="Times,serif" font-size="14.00"> addr</text>
<text text-anchor="start" x="1390.9" y="-3391.3" font-family="Times,serif" font-size="14.00"> memset(BitCastExpr&lt;ptr&gt;(&amp;(addr)), 0, 16)</text>
<text text-anchor="start" x="1390.9" y="-3376.3" font-family="Times,serif" font-size="14.00"> addr = 2</text>
<text text-anchor="start" x="1390.9" y="-3361.3" font-family="Times,serif" font-size="14.00"> htons(12345)</text>
<text text-anchor="start" x="1390.9" y="-3346.3" font-family="Times,serif" font-size="14.00"> htonl(0)</text>
<text text-anchor="start" x="1390.9" y="-3331.3" font-family="Times,serif" font-size="14.00"> addr_len = 16</text>
</g>
<!-- Node0x1b57d20&#45;&gt;Node0x1c1e530 -->
<g id="edge4" class="edge"><title>Node0x1b57d20&#45;&gt;Node0x1c1e530</title>
<path fill="none" stroke="black" d="M1572.9,-3564.25C1577.29,-3558.79 1581.59,-3552.48 1584.4,-3546 1597.16,-3516.57 1595.72,-3505.45 1589.4,-3474 1587.55,-3464.83 1584.78,-3455.43 1581.54,-3446.31"/>
<polygon fill="black" stroke="black" points="1584.81,-3445.05 1578.02,-3436.92 1578.25,-3447.51 1584.81,-3445.05"/>
<text text-anchor="middle" x="1636.9" y="-3489.8" font-family="Times,serif" font-size="14.00">sock_fd &gt; 0</text>
</g>
<!-- Node0x1b61b40&#45;&gt;Node0x1c1e530 -->
<g id="edge5" class="edge"><title>Node0x1b61b40&#45;&gt;Node0x1c1e530</title>
<path fill="none" stroke="black" d="M1406.41,-3474.34C1420.36,-3465.29 1438.13,-3453.78 1456.37,-3441.95"/>
<polygon fill="black" stroke="black" points="1458.29,-3444.88 1464.78,-3436.5 1454.48,-3439 1458.29,-3444.88"/>
</g>
<!-- Node0x1b922a0 -->
<g id="node6" class="node"><title>Node0x1b922a0</title>
<polygon fill="none" stroke="black" points="1339.4,-3249.5 1339.4,-3285.5 1761.4,-3285.5 1761.4,-3249.5 1339.4,-3249.5"/>
<text text-anchor="start" x="1347.4" y="-3263.8" font-family="Times,serif" font-size="14.00">if (bind(sock_fd, BitCastExpr&lt;ptr&gt;(&amp;(addr)), 16) &lt;= 0):</text>
</g>
<!-- Node0x1c1e530&#45;&gt;Node0x1b922a0 -->
<g id="edge6" class="edge"><title>Node0x1c1e530&#45;&gt;Node0x1b922a0</title>
<path fill="none" stroke="black" d="M1550.4,-3323.43C1550.4,-3313.86 1550.4,-3304.31 1550.4,-3295.91"/>
<polygon fill="black" stroke="black" points="1553.9,-3295.64 1550.4,-3285.64 1546.9,-3295.64 1553.9,-3295.64"/>
</g>
<!-- Node0x1c1e490 -->
<g id="node7" class="node"><title>Node0x1c1e490</title>
<polygon fill="none" stroke="black" points="1279.4,-3159.5 1279.4,-3197.5 1617.4,-3197.5 1617.4,-3159.5 1279.4,-3159.5"/>
<text text-anchor="start" x="1287.4" y="-3182.3" font-family="Times,serif" font-size="14.00">0x804893a:</text>
<text text-anchor="start" x="1287.4" y="-3167.3" font-family="Times,serif" font-size="14.00"> die(PtrToIntCastExpr&lt;int32&gt;(&quot;can&#39;t bind&quot;))</text>
</g>
<!-- Node0x1b922a0&#45;&gt;Node0x1c1e490 -->
<g id="edge7" class="edge"><title>Node0x1b922a0&#45;&gt;Node0x1c1e490</title>
<path fill="none" stroke="black" d="M1393.61,-3249.45C1376.42,-3244.72 1362.81,-3238.69 1356.4,-3231 1346.54,-3219.18 1353.08,-3209.57 1366.3,-3202"/>
<polygon fill="black" stroke="black" points="1367.9,-3205.11 1375.32,-3197.54 1364.8,-3198.83 1367.9,-3205.11"/>
<text text-anchor="middle" x="1544.4" y="-3219.8" font-family="Times,serif" font-size="14.00">bind(sock_fd, BitCastExpr&lt;ptr&gt;(&amp;(addr)), 16) &lt;= 0</text>
</g>
<!-- Node0x1bf9390 -->
<g id="node8" class="node"><title>Node0x1bf9390</title>
<polygon fill="none" stroke="black" points="1604.4,-2993.5 1604.4,-3121.5 1726.4,-3121.5 1726.4,-2993.5 1604.4,-2993.5"/>
<text text-anchor="start" x="1612.4" y="-3106.3" font-family="Times,serif" font-size="14.00">0x804894a:</text>
<text text-anchor="start" x="1612.4" y="-3091.3" font-family="Times,serif" font-size="14.00"> fds = array(2)</text>
<text text-anchor="start" x="1612.4" y="-3076.3" font-family="Times,serif" font-size="14.00"> fd</text>
<text text-anchor="start" x="1612.4" y="-3061.3" font-family="Times,serif" font-size="14.00"> fds[0] = &amp;(fd)</text>
<text text-anchor="start" x="1612.4" y="-3046.3" font-family="Times,serif" font-size="14.00"> v1</text>
<text text-anchor="start" x="1612.4" y="-3031.3" font-family="Times,serif" font-size="14.00"> v2 = v1</text>
<text text-anchor="start" x="1612.4" y="-3016.3" font-family="Times,serif" font-size="14.00"> v3</text>
<text text-anchor="start" x="1612.4" y="-3001.3" font-family="Times,serif" font-size="14.00"> v4 = v3</text>
</g>
<!-- Node0x1b922a0&#45;&gt;Node0x1bf9390 -->
<g id="edge8" class="edge"><title>Node0x1b922a0&#45;&gt;Node0x1bf9390</title>
<path fill="none" stroke="black" d="M1695.03,-3249.39C1712.33,-3244.66 1726.1,-3238.64 1732.4,-3231 1756.21,-3202.09 1744.44,-3163.74 1724.56,-3130.54"/>
<polygon fill="black" stroke="black" points="1727.33,-3128.38 1719.05,-3121.77 1721.41,-3132.1 1727.33,-3128.38"/>
<text text-anchor="middle" x="1928.4" y="-3174.8" font-family="Times,serif" font-size="14.00">bind(sock_fd, BitCastExpr&lt;ptr&gt;(&amp;(addr)), 16) &gt; 0</text>
</g>
<!-- Node0x1c1e490&#45;&gt;Node0x1bf9390 -->
<g id="edge9" class="edge"><title>Node0x1c1e490&#45;&gt;Node0x1bf9390</title>
<path fill="none" stroke="black" d="M1481.35,-3159.43C1511.43,-3142.93 1556.88,-3118.01 1595.09,-3097.06"/>
<polygon fill="black" stroke="black" points="1597.04,-3099.98 1604.12,-3092.1 1593.67,-3093.84 1597.04,-3099.98"/>
</g>
<!-- Node0x1c6f5c0 -->
<g id="node9" class="node"><title>Node0x1c6f5c0</title>
<polygon fill="none" stroke="black" points="1606.9,-2872.5 1606.9,-2955.5 1723.9,-2955.5 1723.9,-2872.5 1606.9,-2872.5"/>
<text text-anchor="start" x="1614.9" y="-2940.3" font-family="Times,serif" font-size="14.00">0x804894a_4:</text>
<text text-anchor="start" x="1614.9" y="-2925.3" font-family="Times,serif" font-size="14.00"> v5</text>
<text text-anchor="start" x="1614.9" y="-2910.3" font-family="Times,serif" font-size="14.00"> str2</text>
<text text-anchor="start" x="1614.9" y="-2895.3" font-family="Times,serif" font-size="14.00"> str</text>
<text text-anchor="start" x="1614.9" y="-2880.3" font-family="Times,serif" font-size="14.00"> addr2</text>
</g>
<!-- Node0x1bf9390&#45;&gt;Node0x1c6f5c0 -->
<g id="edge10" class="edge"><title>Node0x1bf9390&#45;&gt;Node0x1c6f5c0</title>
<path fill="none" stroke="black" d="M1665.4,-2993.2C1665.4,-2984 1665.4,-2974.62 1665.4,-2965.71"/>
<polygon fill="black" stroke="black" points="1668.9,-2965.5 1665.4,-2955.5 1661.9,-2965.5 1668.9,-2965.5"/>
</g>
<!-- Node0x1c0ffa0 -->
<g id="node10" class="node"><title>Node0x1c0ffa0</title>
<polygon fill="none" stroke="black" points="1519.9,-2798.5 1519.9,-2834.5 1616.9,-2834.5 1616.9,-2798.5 1519.9,-2798.5"/>
<text text-anchor="start" x="1527.9" y="-2812.8" font-family="Times,serif" font-size="14.00">while True:</text>
</g>
<!-- Node0x1c6f5c0&#45;&gt;Node0x1c0ffa0 -->
<g id="edge11" class="edge"><title>Node0x1c6f5c0&#45;&gt;Node0x1c0ffa0</title>
<path fill="none" stroke="black" d="M1624.26,-2872.5C1613.67,-2862.07 1602.59,-2851.17 1593.13,-2841.85"/>
<polygon fill="black" stroke="black" points="1595.5,-2839.27 1585.92,-2834.75 1590.59,-2844.26 1595.5,-2839.27"/>
</g>
<!-- Node0x1bfe4d0 -->
<g id="node11" class="node"><title>Node0x1bfe4d0</title>
<polygon fill="none" stroke="black" points="1525.4,-2710.5 1525.4,-2746.5 1597.4,-2746.5 1597.4,-2710.5 1525.4,-2710.5"/>
<text text-anchor="start" x="1533.4" y="-2724.8" font-family="Times,serif" font-size="14.00">v6 = v2</text>
</g>
<!-- Node0x1c0ffa0&#45;&gt;Node0x1bfe4d0 -->
<g id="edge12" class="edge"><title>Node0x1c0ffa0&#45;&gt;Node0x1bfe4d0</title>
<path fill="none" stroke="black" d="M1566.98,-2798.1C1566.01,-2786.25 1564.72,-2770.32 1563.62,-2756.79"/>
<polygon fill="black" stroke="black" points="1567.09,-2756.27 1562.79,-2746.58 1560.11,-2756.84 1567.09,-2756.27"/>
<text text-anchor="middle" x="1582.4" y="-2768.8" font-family="Times,serif" font-size="14.00">True</text>
</g>
<!-- Node0x1b22f20 -->
<g id="node12" class="node"><title>Node0x1b22f20</title>
<polygon fill="none" stroke="black" points="1500.9,-2634.5 1500.9,-2672.5 1617.9,-2672.5 1617.9,-2634.5 1500.9,-2634.5"/>
<text text-anchor="start" x="1508.9" y="-2657.3" font-family="Times,serif" font-size="14.00">0x804894a_2:</text>
<text text-anchor="start" x="1508.9" y="-2642.3" font-family="Times,serif" font-size="14.00"> while True:</text>
</g>
<!-- Node0x1bfe4d0&#45;&gt;Node0x1b22f20 -->
<g id="edge13" class="edge"><title>Node0x1bfe4d0&#45;&gt;Node0x1b22f20</title>
<path fill="none" stroke="black" d="M1560.92,-2710.2C1560.7,-2701.99 1560.42,-2691.97 1560.17,-2682.7"/>
<polygon fill="black" stroke="black" points="1563.67,-2682.59 1559.89,-2672.69 1556.67,-2682.79 1563.67,-2682.59"/>
</g>
<!-- Node0x1b23090 -->
<g id="node13" class="node"><title>Node0x1b23090</title>
<polygon fill="none" stroke="black" points="884.396,-2499.5 884.396,-2582.5 1224.4,-2582.5 1224.4,-2499.5 884.396,-2499.5"/>
<text text-anchor="start" x="892.396" y="-2567.3" font-family="Times,serif" font-size="14.00">buf</text>
<text text-anchor="start" x="892.396" y="-2552.3" font-family="Times,serif" font-size="14.00"> memset(BitCastExpr&lt;ptr&gt;(&amp;(buf)), 0, 20)</text>
<text text-anchor="start" x="892.396" y="-2537.3" font-family="Times,serif" font-size="14.00"> memset(BitCastExpr&lt;ptr&gt;(&amp;(str2)), 0, 20)</text>
<text text-anchor="start" x="892.396" y="-2522.3" font-family="Times,serif" font-size="14.00"> memset(BitCastExpr&lt;ptr&gt;(&amp;(str)), 0, 2000)</text>
<text text-anchor="start" x="892.396" y="-2507.3" font-family="Times,serif" font-size="14.00"> str2 = 1832480822</text>
</g>
<!-- Node0x1b22f20&#45;&gt;Node0x1b23090 -->
<g id="edge14" class="edge"><title>Node0x1b22f20&#45;&gt;Node0x1b23090</title>
<path fill="none" stroke="black" d="M1500.48,-2639.61C1435.46,-2625.38 1327.63,-2601.79 1234.28,-2581.36"/>
<polygon fill="black" stroke="black" points="1234.95,-2577.92 1224.43,-2579.21 1233.45,-2584.76 1234.95,-2577.92"/>
<text text-anchor="middle" x="1399.4" y="-2604.8" font-family="Times,serif" font-size="14.00">True</text>
</g>
<!-- Node0x1c0fee0 -->
<g id="node14" class="node"><title>Node0x1c0fee0</title>
<polygon fill="none" stroke="black" points="378.396,-2425.5 378.396,-2461.5 1202.4,-2461.5 1202.4,-2425.5 378.396,-2425.5"/>
<text text-anchor="start" x="386.396" y="-2439.8" font-family="Times,serif" font-size="14.00">while (recvfrom(sock_fd, BitCastExpr&lt;ptr&gt;(&amp;(buf)), 2000, 0, BitCastExpr&lt;ptr&gt;(&amp;(addr2)), &amp;(addr_len)) &lt;= 0):</text>
</g>
<!-- Node0x1b23090&#45;&gt;Node0x1c0fee0 -->
<g id="edge15" class="edge"><title>Node0x1b23090&#45;&gt;Node0x1c0fee0</title>
<path fill="none" stroke="black" d="M942.436,-2499.5C909.5,-2487.58 874.859,-2475.05 846.976,-2464.97"/>
<polygon fill="black" stroke="black" points="848.003,-2461.62 837.409,-2461.51 845.622,-2468.2 848.003,-2461.62"/>
</g>
<!-- Node0x1c1bf40 -->
<g id="node15" class="node"><title>Node0x1c1bf40</title>
<polygon fill="none" stroke="black" points="2.39605,-2290.5 2.39605,-2373.5 342.396,-2373.5 342.396,-2290.5 2.39605,-2290.5"/>
<text text-anchor="start" x="10.3961" y="-2358.3" font-family="Times,serif" font-size="14.00">0x804894a:</text>
<text text-anchor="start" x="10.3961" y="-2343.3" font-family="Times,serif" font-size="14.00"> memset(BitCastExpr&lt;ptr&gt;(&amp;(buf)), 0, 20)</text>
<text text-anchor="start" x="10.3961" y="-2328.3" font-family="Times,serif" font-size="14.00"> memset(BitCastExpr&lt;ptr&gt;(&amp;(str2)), 0, 20)</text>
<text text-anchor="start" x="10.3961" y="-2313.3" font-family="Times,serif" font-size="14.00"> memset(BitCastExpr&lt;ptr&gt;(&amp;(str)), 0, 2000)</text>
<text text-anchor="start" x="10.3961" y="-2298.3" font-family="Times,serif" font-size="14.00"> str2 = 1832480822</text>
</g>
<!-- Node0x1c0fee0&#45;&gt;Node0x1c1bf40 -->
<g id="edge16" class="edge"><title>Node0x1c0fee0&#45;&gt;Node0x1c1bf40</title>
<path fill="none" stroke="black" d="M378.326,-2435.64C197.929,-2430.54 23.5424,-2421.8 9.39605,-2407 0.36818,-2397.55 -1.29693,-2389.21 2.22567,-2381.87"/>
<polygon fill="black" stroke="black" points="5.20943,-2383.74 8.61358,-2373.7 -0.304275,-2379.42 5.20943,-2383.74"/>
<text text-anchor="middle" x="384.396" y="-2395.8" font-family="Times,serif" font-size="14.00">recvfrom(sock_fd, BitCastExpr&lt;ptr&gt;(&amp;(buf)), 2000, 0, BitCastExpr&lt;ptr&gt;(&amp;(addr2)), &amp;(addr_len)) &lt;= 0</text>
</g>
<!-- Node0x1bda090 -->
<g id="node16" class="node"><title>Node0x1bda090</title>
<polygon fill="none" stroke="black" points="698.896,-2305.5 698.896,-2358.5 963.896,-2358.5 963.896,-2305.5 698.896,-2305.5"/>
<text text-anchor="start" x="706.896" y="-2343.3" font-family="Times,serif" font-size="14.00">0x80489cc:</text>
<text text-anchor="start" x="706.896" y="-2328.3" font-family="Times,serif" font-size="14.00"> strlen(BitCastExpr&lt;ptr&gt;(&amp;(buf)))</text>
<text text-anchor="start" x="706.896" y="-2313.3" font-family="Times,serif" font-size="14.00"> v5 = v6</text>
</g>
<!-- Node0x1c0fee0&#45;&gt;Node0x1bda090 -->
<g id="edge17" class="edge"><title>Node0x1c0fee0&#45;&gt;Node0x1bda090</title>
<path fill="none" stroke="black" d="M795.956,-2425.11C799.157,-2415.33 803.339,-2402.93 807.396,-2392 810.297,-2384.19 813.569,-2375.86 816.744,-2368"/>
<polygon fill="black" stroke="black" points="819.997,-2369.29 820.535,-2358.71 813.516,-2366.65 819.997,-2369.29"/>
<text text-anchor="middle" x="1176.4" y="-2395.8" font-family="Times,serif" font-size="14.00">recvfrom(sock_fd, BitCastExpr&lt;ptr&gt;(&amp;(buf)), 2000, 0, BitCastExpr&lt;ptr&gt;(&amp;(addr2)), &amp;(addr_len)) &gt; 0</text>
</g>
<!-- Node0x1c1bf40&#45;&gt;Node0x1c0fee0 -->
<g id="edge18" class="edge"><title>Node0x1c1bf40&#45;&gt;Node0x1c0fee0</title>
<path fill="none" stroke="black" d="M342.732,-2342.44C503.379,-2352.57 724.635,-2370.2 759.396,-2392 768.322,-2397.6 775.068,-2406.8 779.949,-2415.83"/>
<polygon fill="black" stroke="black" points="776.881,-2417.52 784.374,-2425.01 783.187,-2414.48 776.881,-2417.52"/>
</g>
<!-- Node0x1b834b0 -->
<g id="node17" class="node"><title>Node0x1b834b0</title>
<polygon fill="none" stroke="black" points="924.396,-2216.5 924.396,-2252.5 1038.4,-2252.5 1038.4,-2216.5 924.396,-2216.5"/>
<text text-anchor="start" x="932.396" y="-2230.8" font-family="Times,serif" font-size="14.00">if (v6 == 10):</text>
</g>
<!-- Node0x1bda090&#45;&gt;Node0x1b834b0 -->
<g id="edge19" class="edge"><title>Node0x1bda090&#45;&gt;Node0x1b834b0</title>
<path fill="none" stroke="black" d="M871.593,-2305.41C894.73,-2290.68 923.544,-2272.33 945.85,-2258.13"/>
<polygon fill="black" stroke="black" points="947.804,-2261.04 954.36,-2252.71 944.045,-2255.13 947.804,-2261.04"/>
</g>
<!-- Node0x1c70080 -->
<g id="node18" class="node"><title>Node0x1c70080</title>
<polygon fill="none" stroke="black" points="848.896,-2111.5 848.896,-2164.5 1113.9,-2164.5 1113.9,-2111.5 848.896,-2111.5"/>
<text text-anchor="start" x="856.896" y="-2149.3" font-family="Times,serif" font-size="14.00">0x80489e7:</text>
<text text-anchor="start" x="856.896" y="-2134.3" font-family="Times,serif" font-size="14.00"> strlen(BitCastExpr&lt;ptr&gt;(&amp;(buf)))</text>
<text text-anchor="start" x="856.896" y="-2119.3" font-family="Times,serif" font-size="14.00"> v5 = 0</text>
</g>
<!-- Node0x1b834b0&#45;&gt;Node0x1c70080 -->
<g id="edge20" class="edge"><title>Node0x1b834b0&#45;&gt;Node0x1c70080</title>
<path fill="none" stroke="black" d="M981.396,-2216.17C981.396,-2204.7 981.396,-2189.25 981.396,-2175.18"/>
<polygon fill="black" stroke="black" points="984.896,-2174.78 981.396,-2164.78 977.896,-2174.78 984.896,-2174.78"/>
<text text-anchor="middle" x="1015.9" y="-2186.8" font-family="Times,serif" font-size="14.00">v6 == 10</text>
</g>
<!-- Node0x1bda5a0 -->
<g id="node19" class="node"><title>Node0x1bda5a0</title>
<polygon fill="none" stroke="black" points="793.896,-2005.5 793.896,-2073.5 1506.9,-2073.5 1506.9,-2005.5 793.896,-2005.5"/>
<text text-anchor="start" x="801.896" y="-2058.3" font-family="Times,serif" font-size="14.00">0x80489fe:</text>
<text text-anchor="start" x="801.896" y="-2043.3" font-family="Times,serif" font-size="14.00"> sprintf(BitCastExpr&lt;ptr&gt;(&amp;(str)), &quot;your login is: \&quot;%s\&quot;. Now give me your password\n&quot;, &amp;(buf))</text>
<text text-anchor="start" x="801.896" y="-2028.3" font-family="Times,serif" font-size="14.00"> len = strlen(BitCastExpr&lt;ptr&gt;(&amp;(str)))</text>
<text text-anchor="start" x="801.896" y="-2013.3" font-family="Times,serif" font-size="14.00"> v7 = sendto(sock_fd, BitCastExpr&lt;ptr&gt;(&amp;(str)), len, 0, BitCastExpr&lt;ptr&gt;(&amp;(addr2)), addr_len)</text>
</g>
<!-- Node0x1b834b0&#45;&gt;Node0x1bda5a0 -->
<g id="edge21" class="edge"><title>Node0x1b834b0&#45;&gt;Node0x1bda5a0</title>
<path fill="none" stroke="black" d="M1038.49,-2218.74C1067.71,-2208.35 1101.44,-2191.45 1122.4,-2165 1140.55,-2142.08 1147.43,-2109.7 1149.83,-2083.71"/>
<polygon fill="black" stroke="black" points="1153.32,-2083.96 1150.57,-2073.73 1146.34,-2083.45 1153.32,-2083.96"/>
<text text-anchor="middle" x="1177.9" y="-2134.3" font-family="Times,serif" font-size="14.00">v6 != 10</text>
</g>
<!-- Node0x1c70080&#45;&gt;Node0x1bda5a0 -->
<g id="edge22" class="edge"><title>Node0x1c70080&#45;&gt;Node0x1bda5a0</title>
<path fill="none" stroke="black" d="M1026.24,-2111.39C1043.88,-2101.32 1064.5,-2089.55 1083.81,-2078.52"/>
<polygon fill="black" stroke="black" points="1085.63,-2081.51 1092.58,-2073.52 1082.16,-2075.44 1085.63,-2081.51"/>
</g>
<!-- Node0x1bda780 -->
<g id="node20" class="node"><title>Node0x1bda780</title>
<polygon fill="none" stroke="black" points="1140.9,-1931.5 1140.9,-1967.5 1233.9,-1967.5 1233.9,-1931.5 1140.9,-1931.5"/>
<text text-anchor="start" x="1148.9" y="-1945.8" font-family="Times,serif" font-size="14.00">if (v7 &gt; 0):</text>
</g>
<!-- Node0x1bda5a0&#45;&gt;Node0x1bda780 -->
<g id="edge23" class="edge"><title>Node0x1bda5a0&#45;&gt;Node0x1bda780</title>
<path fill="none" stroke="black" d="M1164.28,-2005.48C1168.21,-1996.13 1172.44,-1986.06 1176.2,-1977.14"/>
<polygon fill="black" stroke="black" points="1179.54,-1978.22 1180.19,-1967.64 1173.09,-1975.5 1179.54,-1978.22"/>
</g>
<!-- Node0x1c1ba30 -->
<g id="node21" class="node"><title>Node0x1c1ba30</title>
<polygon fill="none" stroke="black" points="1103.9,-1841.5 1103.9,-1879.5 1270.9,-1879.5 1270.9,-1841.5 1103.9,-1841.5"/>
<text text-anchor="start" x="1111.9" y="-1864.3" font-family="Times,serif" font-size="14.00">break &#45;&gt; 0x8048a5b:</text>
<text text-anchor="start" x="1111.9" y="-1849.3" font-family="Times,serif" font-size="14.00"> break</text>
</g>
<!-- Node0x1bda780&#45;&gt;Node0x1c1ba30 -->
<g id="edge24" class="edge"><title>Node0x1bda780&#45;&gt;Node0x1c1ba30</title>
<path fill="none" stroke="black" d="M1187.4,-1931.31C1187.4,-1919.51 1187.4,-1903.57 1187.4,-1889.9"/>
<polygon fill="black" stroke="black" points="1190.9,-1889.55 1187.4,-1879.55 1183.9,-1889.55 1190.9,-1889.55"/>
<text text-anchor="middle" x="1211.4" y="-1901.8" font-family="Times,serif" font-size="14.00">v7 &gt; 0</text>
</g>
<!-- Node0x1b673c0 -->
<g id="node22" class="node"><title>Node0x1b673c0</title>
<polygon fill="none" stroke="black" points="1416.4,-1842.5 1416.4,-1878.5 1488.4,-1878.5 1488.4,-1842.5 1416.4,-1842.5"/>
<text text-anchor="start" x="1424.4" y="-1856.8" font-family="Times,serif" font-size="14.00">v6 = v5</text>
</g>
<!-- Node0x1bda780&#45;&gt;Node0x1b673c0 -->
<g id="edge25" class="edge"><title>Node0x1bda780&#45;&gt;Node0x1b673c0</title>
<path fill="none" stroke="black" d="M1234.16,-1933.15C1282.82,-1917.17 1358.5,-1892.33 1406.74,-1876.49"/>
<polygon fill="black" stroke="black" points="1407.89,-1879.8 1416.3,-1873.35 1405.7,-1873.15 1407.89,-1879.8"/>
<text text-anchor="middle" x="1366.4" y="-1901.8" font-family="Times,serif" font-size="14.00">v7 &lt;= 0</text>
</g>
<!-- Node0x1b22fb0 -->
<g id="node23" class="node"><title>Node0x1b22fb0</title>
<polygon fill="none" stroke="black" points="805.396,-1750.5 805.396,-1803.5 1569.4,-1803.5 1569.4,-1750.5 805.396,-1750.5"/>
<text text-anchor="start" x="813.396" y="-1788.3" font-family="Times,serif" font-size="14.00">0x8048a5b:</text>
<text text-anchor="start" x="813.396" y="-1773.3" font-family="Times,serif" font-size="14.00"> memset(BitCastExpr&lt;ptr&gt;(&amp;(str)), 0, 2000)</text>
<text text-anchor="start" x="813.396" y="-1758.3" font-family="Times,serif" font-size="14.00"> v8 = recvfrom(sock_fd, BitCastExpr&lt;ptr&gt;(&amp;(str)), 2000, 0, BitCastExpr&lt;ptr&gt;(&amp;(addr2)), &amp;(addr_len))</text>
</g>
<!-- Node0x1c1ba30&#45;&gt;Node0x1b22fb0 -->
<g id="edge26" class="edge"><title>Node0x1c1ba30&#45;&gt;Node0x1b22fb0</title>
<path fill="none" stroke="black" d="M1187.4,-1841.41C1187.4,-1833.28 1187.4,-1823.39 1187.4,-1813.86"/>
<polygon fill="black" stroke="black" points="1190.9,-1813.77 1187.4,-1803.77 1183.9,-1813.77 1190.9,-1813.77"/>
</g>
<!-- Node0x1b673c0&#45;&gt;Node0x1b22f20 -->
<g id="edge27" class="edge"><title>Node0x1b673c0&#45;&gt;Node0x1b22f20</title>
<path fill="none" stroke="black" d="M1488.62,-1873.86C1519.66,-1887.01 1559.4,-1911.15 1559.4,-1948.5 1559.4,-2542 1559.4,-2542 1559.4,-2542 1559.4,-2569.86 1559.4,-2601.68 1559.4,-2623.99"/>
<polygon fill="black" stroke="black" points="1555.9,-2624.12 1559.4,-2634.12 1562.9,-2624.12 1555.9,-2624.12"/>
</g>
<!-- Node0x1bfe530 -->
<g id="node24" class="node"><title>Node0x1bfe530</title>
<polygon fill="none" stroke="black" points="1208.9,-1676.5 1208.9,-1712.5 1301.9,-1712.5 1301.9,-1676.5 1208.9,-1676.5"/>
<text text-anchor="start" x="1216.9" y="-1690.8" font-family="Times,serif" font-size="14.00">if (v8 &gt; 0):</text>
</g>
<!-- Node0x1b22fb0&#45;&gt;Node0x1bfe530 -->
<g id="edge28" class="edge"><title>Node0x1b22fb0&#45;&gt;Node0x1bfe530</title>
<path fill="none" stroke="black" d="M1209.29,-1750.09C1217.21,-1740.7 1226.15,-1730.12 1234.03,-1720.79"/>
<polygon fill="black" stroke="black" points="1236.86,-1722.87 1240.64,-1712.97 1231.51,-1718.35 1236.86,-1722.87"/>
</g>
<!-- Node0x1c1b230 -->
<g id="node25" class="node"><title>Node0x1c1b230</title>
<polygon fill="none" stroke="black" points="1135.9,-1586.5 1135.9,-1624.5 1374.9,-1624.5 1374.9,-1586.5 1135.9,-1586.5"/>
<text text-anchor="start" x="1143.9" y="-1609.3" font-family="Times,serif" font-size="14.00">break (via goto) &#45;&gt; 0x8048aa6:</text>
<text text-anchor="start" x="1143.9" y="-1594.3" font-family="Times,serif" font-size="14.00"> goto 0x8048aa6</text>
</g>
<!-- Node0x1bfe530&#45;&gt;Node0x1c1b230 -->
<g id="edge29" class="edge"><title>Node0x1bfe530&#45;&gt;Node0x1c1b230</title>
<path fill="none" stroke="black" d="M1255.4,-1676.31C1255.4,-1664.51 1255.4,-1648.57 1255.4,-1634.9"/>
<polygon fill="black" stroke="black" points="1258.9,-1634.55 1255.4,-1624.55 1251.9,-1634.55 1258.9,-1634.55"/>
<text text-anchor="middle" x="1279.4" y="-1646.8" font-family="Times,serif" font-size="14.00">v8 &gt; 0</text>
</g>
<!-- Node0x1c11350 -->
<g id="node26" class="node"><title>Node0x1c11350</title>
<polygon fill="none" stroke="black" points="1428.9,-1586.5 1428.9,-1624.5 1581.9,-1624.5 1581.9,-1586.5 1428.9,-1586.5"/>
<text text-anchor="start" x="1436.9" y="-1609.3" font-family="Times,serif" font-size="14.00">v6 = v5</text>
<text text-anchor="start" x="1436.9" y="-1594.3" font-family="Times,serif" font-size="14.00"> goto 0x804894a_2</text>
</g>
<!-- Node0x1bfe530&#45;&gt;Node0x1c11350 -->
<g id="edge30" class="edge"><title>Node0x1bfe530&#45;&gt;Node0x1c11350</title>
<path fill="none" stroke="black" d="M1302.13,-1677.24C1342.07,-1663.34 1399.85,-1643.23 1443.61,-1628"/>
<polygon fill="black" stroke="black" points="1444.99,-1631.23 1453.28,-1624.64 1442.69,-1624.62 1444.99,-1631.23"/>
<text text-anchor="middle" x="1425.4" y="-1646.8" font-family="Times,serif" font-size="14.00">v8 &lt;= 0</text>
</g>
<!-- Node0x1be1ed0 -->
<g id="node27" class="node"><title>Node0x1be1ed0</title>
<polygon fill="none" stroke="black" points="1124.4,-1495.5 1124.4,-1548.5 1386.4,-1548.5 1386.4,-1495.5 1124.4,-1495.5"/>
<text text-anchor="start" x="1132.4" y="-1533.3" font-family="Times,serif" font-size="14.00">0x8048aa6:</text>
<text text-anchor="start" x="1132.4" y="-1518.3" font-family="Times,serif" font-size="14.00"> strlen(BitCastExpr&lt;ptr&gt;(&amp;(str)))</text>
<text text-anchor="start" x="1132.4" y="-1503.3" font-family="Times,serif" font-size="14.00"> v9 = v4</text>
</g>
<!-- Node0x1c1b230&#45;&gt;Node0x1be1ed0 -->
<g id="edge31" class="edge"><title>Node0x1c1b230&#45;&gt;Node0x1be1ed0</title>
<path fill="none" stroke="black" d="M1255.4,-1586.41C1255.4,-1578.28 1255.4,-1568.39 1255.4,-1558.86"/>
<polygon fill="black" stroke="black" points="1258.9,-1558.77 1255.4,-1548.77 1251.9,-1558.77 1258.9,-1558.77"/>
</g>
<!-- Node0x1c11350&#45;&gt;Node0x1b22f20 -->
<g id="edge32" class="edge"><title>Node0x1c11350&#45;&gt;Node0x1b22f20</title>
<path fill="none" stroke="black" d="M1544.41,-1624.63C1569.49,-1639.26 1597.4,-1662.5 1597.4,-1693.5 1597.4,-2542 1597.4,-2542 1597.4,-2542 1597.4,-2571.69 1584.98,-2603.54 1574.34,-2625.39"/>
<polygon fill="black" stroke="black" points="1571.18,-2623.88 1569.78,-2634.39 1577.42,-2627.05 1571.18,-2623.88"/>
</g>
<!-- Node0x1c1e590 -->
<g id="node28" class="node"><title>Node0x1c1e590</title>
<polygon fill="none" stroke="black" points="1198.4,-1421.5 1198.4,-1457.5 1312.4,-1457.5 1312.4,-1421.5 1198.4,-1421.5"/>
<text text-anchor="start" x="1206.4" y="-1435.8" font-family="Times,serif" font-size="14.00">if (v4 == 10):</text>
</g>
<!-- Node0x1be1ed0&#45;&gt;Node0x1c1e590 -->
<g id="edge33" class="edge"><title>Node0x1be1ed0&#45;&gt;Node0x1c1e590</title>
<path fill="none" stroke="black" d="M1255.4,-1495.09C1255.4,-1486.46 1255.4,-1476.82 1255.4,-1468.07"/>
<polygon fill="black" stroke="black" points="1258.9,-1467.97 1255.4,-1457.97 1251.9,-1467.97 1258.9,-1467.97"/>
</g>
<!-- Node0x1b7bfd0 -->
<g id="node29" class="node"><title>Node0x1b7bfd0</title>
<polygon fill="none" stroke="black" points="1035.4,-1316.5 1035.4,-1369.5 1297.4,-1369.5 1297.4,-1316.5 1035.4,-1316.5"/>
<text text-anchor="start" x="1043.4" y="-1354.3" font-family="Times,serif" font-size="14.00">0x8048ac7:</text>
<text text-anchor="start" x="1043.4" y="-1339.3" font-family="Times,serif" font-size="14.00"> strlen(BitCastExpr&lt;ptr&gt;(&amp;(str)))</text>
<text text-anchor="start" x="1043.4" y="-1324.3" font-family="Times,serif" font-size="14.00"> v9 = 0</text>
</g>
<!-- Node0x1c1e590&#45;&gt;Node0x1b7bfd0 -->
<g id="edge34" class="edge"><title>Node0x1c1e590&#45;&gt;Node0x1b7bfd0</title>
<path fill="none" stroke="black" d="M1239.07,-1421.17C1227.53,-1408.92 1211.7,-1392.11 1197.76,-1377.3"/>
<polygon fill="black" stroke="black" points="1200.08,-1374.66 1190.68,-1369.78 1194.98,-1379.46 1200.08,-1374.66"/>
<text text-anchor="middle" x="1256.9" y="-1391.8" font-family="Times,serif" font-size="14.00">v4 == 10</text>
</g>
<!-- Node0x1bfe660 -->
<g id="node30" class="node"><title>Node0x1bfe660</title>
<polygon fill="none" stroke="black" points="934.396,-1210.5 934.396,-1278.5 1614.4,-1278.5 1614.4,-1210.5 934.396,-1210.5"/>
<text text-anchor="start" x="942.396" y="-1263.3" font-family="Times,serif" font-size="14.00">strcmp_rc = strcmp(BitCastExpr&lt;ptr&gt;(&amp;(str2)), BitCastExpr&lt;ptr&gt;(&amp;(str)))</text>
<text text-anchor="start" x="942.396" y="-1248.3" font-family="Times,serif" font-size="14.00"> str = (1668048247 if (strcmp_rc == 0) else 1953785186)</text>
<text text-anchor="start" x="942.396" y="-1233.3" font-family="Times,serif" font-size="14.00"> len2 = strlen(BitCastExpr&lt;ptr&gt;(&amp;(str)))</text>
<text text-anchor="start" x="942.396" y="-1218.3" font-family="Times,serif" font-size="14.00"> sendto(sock_fd, BitCastExpr&lt;ptr&gt;(&amp;(str)), len2, 0, BitCastExpr&lt;ptr&gt;(&amp;(addr2)), addr_len)</text>
</g>
<!-- Node0x1c1e590&#45;&gt;Node0x1bfe660 -->
<g id="edge35" class="edge"><title>Node0x1c1e590&#45;&gt;Node0x1bfe660</title>
<path fill="none" stroke="black" d="M1279.07,-1421.14C1285.04,-1415.86 1291,-1409.66 1295.4,-1403 1303.91,-1390.1 1303.92,-1385.26 1306.4,-1370 1310.24,-1346.31 1311.47,-1339.46 1306.4,-1316 1304.35,-1306.54 1300.92,-1296.83 1297.06,-1287.75"/>
<polygon fill="black" stroke="black" points="1300.21,-1286.23 1292.9,-1278.56 1293.83,-1289.11 1300.21,-1286.23"/>
<text text-anchor="middle" x="1341.9" y="-1339.3" font-family="Times,serif" font-size="14.00">v4 != 10</text>
</g>
<!-- Node0x1b7bfd0&#45;&gt;Node0x1bfe660 -->
<g id="edge36" class="edge"><title>Node0x1b7bfd0&#45;&gt;Node0x1bfe660</title>
<path fill="none" stroke="black" d="M1195.05,-1316.39C1205.72,-1306.87 1218.08,-1295.82 1229.84,-1285.32"/>
<polygon fill="black" stroke="black" points="1232.32,-1287.79 1237.45,-1278.52 1227.66,-1282.57 1232.32,-1287.79"/>
</g>
<!-- Node0x1c014d0 -->
<g id="node31" class="node"><title>Node0x1c014d0</title>
<polygon fill="none" stroke="black" points="1193.9,-1136.5 1193.9,-1172.5 1354.9,-1172.5 1354.9,-1136.5 1193.9,-1136.5"/>
<text text-anchor="start" x="1201.9" y="-1150.8" font-family="Times,serif" font-size="14.00">if (strcmp_rc == 0):</text>
</g>
<!-- Node0x1bfe660&#45;&gt;Node0x1c014d0 -->
<g id="edge37" class="edge"><title>Node0x1bfe660&#45;&gt;Node0x1c014d0</title>
<path fill="none" stroke="black" d="M1274.4,-1210.48C1274.4,-1201.33 1274.4,-1191.5 1274.4,-1182.72"/>
<polygon fill="black" stroke="black" points="1277.9,-1182.64 1274.4,-1172.64 1270.9,-1182.64 1277.9,-1182.64"/>
</g>
<!-- Node0x1c119c0 -->
<g id="node32" class="node"><title>Node0x1c119c0</title>
<polygon fill="none" stroke="black" points="1151.9,-1039 1151.9,-1077 1390.9,-1077 1390.9,-1039 1151.9,-1039"/>
<text text-anchor="start" x="1159.9" y="-1061.8" font-family="Times,serif" font-size="14.00">break (via goto) &#45;&gt; 0x8048be5:</text>
<text text-anchor="start" x="1159.9" y="-1046.8" font-family="Times,serif" font-size="14.00"> goto 0x8048be5</text>
</g>
<!-- Node0x1c014d0&#45;&gt;Node0x1c119c0 -->
<g id="edge38" class="edge"><title>Node0x1c014d0&#45;&gt;Node0x1c119c0</title>
<path fill="none" stroke="black" d="M1273.85,-1136.17C1273.41,-1122.57 1272.8,-1103.37 1272.3,-1087.52"/>
<polygon fill="black" stroke="black" points="1275.79,-1087.07 1271.97,-1077.19 1268.79,-1087.3 1275.79,-1087.07"/>
<text text-anchor="middle" x="1331.4" y="-1106.8" font-family="Times,serif" font-size="14.00">strcmp_rc == 0</text>
</g>
<!-- Node0x1b61a70 -->
<g id="node33" class="node"><title>Node0x1b61a70</title>
<polygon fill="none" stroke="black" points="1454.9,-1031.5 1454.9,-1084.5 1607.9,-1084.5 1607.9,-1031.5 1454.9,-1031.5"/>
<text text-anchor="start" x="1462.9" y="-1069.3" font-family="Times,serif" font-size="14.00">v2 = v5</text>
<text text-anchor="start" x="1462.9" y="-1054.3" font-family="Times,serif" font-size="14.00"> v4 = v9</text>
<text text-anchor="start" x="1462.9" y="-1039.3" font-family="Times,serif" font-size="14.00"> goto 0x804894a_4</text>
</g>
<!-- Node0x1c014d0&#45;&gt;Node0x1b61a70 -->
<g id="edge39" class="edge"><title>Node0x1c014d0&#45;&gt;Node0x1b61a70</title>
<path fill="none" stroke="black" d="M1336.29,-1136.49C1354.8,-1131.02 1375.05,-1124.63 1393.4,-1118 1417.52,-1109.28 1443.49,-1098.54 1466.33,-1088.63"/>
<polygon fill="black" stroke="black" points="1467.82,-1091.8 1475.58,-1084.58 1465.01,-1085.38 1467.82,-1091.8"/>
<text text-anchor="middle" x="1487.4" y="-1106.8" font-family="Times,serif" font-size="14.00">strcmp_rc != 0</text>
</g>
<!-- Node0x1c07900 -->
<g id="node34" class="node"><title>Node0x1c07900</title>
<polygon fill="none" stroke="black" points="882.896,-940.5 882.896,-993.5 1655.9,-993.5 1655.9,-940.5 882.896,-940.5"/>
<text text-anchor="start" x="890.896" y="-978.3" font-family="Times,serif" font-size="14.00">0x8048be5:</text>
<text text-anchor="start" x="890.896" y="-963.3" font-family="Times,serif" font-size="14.00"> memset(BitCastExpr&lt;ptr&gt;(&amp;(str)), 0, 2000)</text>
<text text-anchor="start" x="890.896" y="-948.3" font-family="Times,serif" font-size="14.00"> v10 = recvfrom(sock_fd, BitCastExpr&lt;ptr&gt;(&amp;(str)), 2000, 0, BitCastExpr&lt;ptr&gt;(&amp;(addr2)), &amp;(addr_len))</text>
</g>
<!-- Node0x1c119c0&#45;&gt;Node0x1c07900 -->
<g id="edge40" class="edge"><title>Node0x1c119c0&#45;&gt;Node0x1c07900</title>
<path fill="none" stroke="black" d="M1270.99,-1038.99C1270.77,-1028.93 1270.48,-1016.04 1270.21,-1004"/>
<polygon fill="black" stroke="black" points="1273.7,-1003.66 1269.97,-993.742 1266.7,-1003.82 1273.7,-1003.66"/>
</g>
<!-- Node0x1b61a70&#45;&gt;Node0x1c6f5c0 -->
<g id="edge41" class="edge"><title>Node0x1b61a70&#45;&gt;Node0x1c6f5c0</title>
<path fill="none" stroke="black" d="M1594.62,-1084.61C1621.34,-1099.98 1646.4,-1122.62 1646.4,-1153.5 1646.4,-2817.5 1646.4,-2817.5 1646.4,-2817.5 1646.4,-2832.19 1648.59,-2847.91 1651.48,-2862.27"/>
<polygon fill="black" stroke="black" points="1648.15,-2863.43 1653.69,-2872.46 1654.99,-2861.94 1648.15,-2863.43"/>
</g>
<!-- Node0x1c07a30 -->
<g id="node35" class="node"><title>Node0x1c07a30</title>
<polygon fill="none" stroke="black" points="1272.4,-866.5 1272.4,-902.5 1374.4,-902.5 1374.4,-866.5 1272.4,-866.5"/>
<text text-anchor="start" x="1280.4" y="-880.8" font-family="Times,serif" font-size="14.00">if (v10 &gt; 0):</text>
</g>
<!-- Node0x1c07900&#45;&gt;Node0x1c07a30 -->
<g id="edge42" class="edge"><title>Node0x1c07900&#45;&gt;Node0x1c07a30</title>
<path fill="none" stroke="black" d="M1286.78,-940.086C1292.95,-930.891 1299.89,-920.547 1306.05,-911.357"/>
<polygon fill="black" stroke="black" points="1309.01,-913.228 1311.67,-902.974 1303.2,-909.328 1309.01,-913.228"/>
</g>
<!-- Node0x1c10c80 -->
<g id="node36" class="node"><title>Node0x1c10c80</title>
<polygon fill="none" stroke="black" points="1203.9,-769 1203.9,-807 1442.9,-807 1442.9,-769 1203.9,-769"/>
<text text-anchor="start" x="1211.9" y="-791.8" font-family="Times,serif" font-size="14.00">break (via goto) &#45;&gt; 0x8048c30:</text>
<text text-anchor="start" x="1211.9" y="-776.8" font-family="Times,serif" font-size="14.00"> goto 0x8048c30</text>
</g>
<!-- Node0x1c07a30&#45;&gt;Node0x1c10c80 -->
<g id="edge43" class="edge"><title>Node0x1c07a30&#45;&gt;Node0x1c10c80</title>
<path fill="none" stroke="black" d="M1323.4,-866.167C1323.4,-852.573 1323.4,-833.367 1323.4,-817.516"/>
<polygon fill="black" stroke="black" points="1326.9,-817.189 1323.4,-807.189 1319.9,-817.189 1326.9,-817.189"/>
<text text-anchor="middle" x="1351.9" y="-836.8" font-family="Times,serif" font-size="14.00">v10 &gt; 0</text>
</g>
<!-- Node0x1c6fc60 -->
<g id="node37" class="node"><title>Node0x1c6fc60</title>
<polygon fill="none" stroke="black" points="1500.9,-761.5 1500.9,-814.5 1653.9,-814.5 1653.9,-761.5 1500.9,-761.5"/>
<text text-anchor="start" x="1508.9" y="-799.3" font-family="Times,serif" font-size="14.00">v2 = v5</text>
<text text-anchor="start" x="1508.9" y="-784.3" font-family="Times,serif" font-size="14.00"> v4 = v9</text>
<text text-anchor="start" x="1508.9" y="-769.3" font-family="Times,serif" font-size="14.00"> goto 0x804894a_4</text>
</g>
<!-- Node0x1c07a30&#45;&gt;Node0x1c6fc60 -->
<g id="edge44" class="edge"><title>Node0x1c07a30&#45;&gt;Node0x1c6fc60</title>
<path fill="none" stroke="black" d="M1369.1,-866.496C1405.22,-853.059 1456.47,-833.991 1499.09,-818.132"/>
<polygon fill="black" stroke="black" points="1500.46,-821.36 1508.61,-814.593 1498.01,-814.799 1500.46,-821.36"/>
<text text-anchor="middle" x="1492.9" y="-836.8" font-family="Times,serif" font-size="14.00">v10 &lt;= 0</text>
</g>
<!-- Node0x1c10da0 -->
<g id="node38" class="node"><title>Node0x1c10da0</title>
<polygon fill="none" stroke="black" points="1271.4,-655.5 1271.4,-723.5 1375.4,-723.5 1375.4,-655.5 1271.4,-655.5"/>
<text text-anchor="start" x="1279.4" y="-708.3" font-family="Times,serif" font-size="14.00">0x8048c30:</text>
<text text-anchor="start" x="1279.4" y="-693.3" font-family="Times,serif" font-size="14.00"> fd = 0</text>
<text text-anchor="start" x="1279.4" y="-678.3" font-family="Times,serif" font-size="14.00"> pipe(fds)</text>
<text text-anchor="start" x="1279.4" y="-663.3" font-family="Times,serif" font-size="14.00"> pid = fork()</text>
</g>
<!-- Node0x1c10c80&#45;&gt;Node0x1c10da0 -->
<g id="edge45" class="edge"><title>Node0x1c10c80&#45;&gt;Node0x1c10da0</title>
<path fill="none" stroke="black" d="M1323.4,-768.849C1323.4,-758.953 1323.4,-746.245 1323.4,-733.956"/>
<polygon fill="black" stroke="black" points="1326.9,-733.803 1323.4,-723.803 1319.9,-733.803 1326.9,-733.803"/>
</g>
<!-- Node0x1c6fc60&#45;&gt;Node0x1c6f5c0 -->
<g id="edge46" class="edge"><title>Node0x1c6fc60&#45;&gt;Node0x1c6f5c0</title>
<path fill="none" stroke="black" d="M1634.34,-814.524C1659.9,-830.197 1684.4,-853.14 1684.4,-883.5 1684.4,-2817.5 1684.4,-2817.5 1684.4,-2817.5 1684.4,-2832.19 1682.21,-2847.91 1679.31,-2862.27"/>
<polygon fill="black" stroke="black" points="1675.8,-2861.94 1677.1,-2872.46 1682.65,-2863.43 1675.8,-2861.94"/>
</g>
<!-- Node0x1c10f50 -->
<g id="node39" class="node"><title>Node0x1c10f50</title>
<polygon fill="none" stroke="black" points="1268.4,-581.5 1268.4,-617.5 1378.4,-617.5 1378.4,-581.5 1268.4,-581.5"/>
<text text-anchor="start" x="1276.4" y="-595.8" font-family="Times,serif" font-size="14.00">if (pid == 0):</text>
</g>
<!-- Node0x1c10da0&#45;&gt;Node0x1c10f50 -->
<g id="edge47" class="edge"><title>Node0x1c10da0&#45;&gt;Node0x1c10f50</title>
<path fill="none" stroke="black" d="M1323.4,-655.482C1323.4,-646.328 1323.4,-636.497 1323.4,-627.715"/>
<polygon fill="black" stroke="black" points="1326.9,-627.64 1323.4,-617.64 1319.9,-627.64 1326.9,-627.64"/>
</g>
<!-- Node0x1c153d0 -->
<g id="node40" class="node"><title>Node0x1c153d0</title>
<polygon fill="none" stroke="black" points="1194.4,-446.5 1194.4,-529.5 1364.4,-529.5 1364.4,-446.5 1194.4,-446.5"/>
<text text-anchor="start" x="1202.4" y="-514.3" font-family="Times,serif" font-size="14.00">0x8048c6b:</text>
<text text-anchor="start" x="1202.4" y="-499.3" font-family="Times,serif" font-size="14.00"> close(fd)</text>
<text text-anchor="start" x="1202.4" y="-484.3" font-family="Times,serif" font-size="14.00"> dup2(0, 1)</text>
<text text-anchor="start" x="1202.4" y="-469.3" font-family="Times,serif" font-size="14.00"> dup2(0, 2)</text>
<text text-anchor="start" x="1202.4" y="-454.3" font-family="Times,serif" font-size="14.00"> execl(&quot;/bin/sh&quot;, &quot;sh&quot;)</text>
</g>
<!-- Node0x1c10f50&#45;&gt;Node0x1c153d0 -->
<g id="edge48" class="edge"><title>Node0x1c10f50&#45;&gt;Node0x1c153d0</title>
<path fill="none" stroke="black" d="M1316.52,-581.391C1311.92,-569.934 1305.6,-554.215 1299.48,-538.991"/>
<polygon fill="black" stroke="black" points="1302.69,-537.592 1295.72,-529.618 1296.2,-540.202 1302.69,-537.592"/>
<text text-anchor="middle" x="1340.9" y="-551.8" font-family="Times,serif" font-size="14.00">pid == 0</text>
</g>
<!-- Node0x1c115c0 -->
<g id="node41" class="node"><title>Node0x1c115c0</title>
<polygon fill="none" stroke="black" points="1122.4,-310.5 1122.4,-408.5 1462.4,-408.5 1462.4,-310.5 1122.4,-310.5"/>
<text text-anchor="start" x="1130.4" y="-393.3" font-family="Times,serif" font-size="14.00">0x8048cc8:</text>
<text text-anchor="start" x="1130.4" y="-378.3" font-family="Times,serif" font-size="14.00"> sleep(2)</text>
<text text-anchor="start" x="1130.4" y="-363.3" font-family="Times,serif" font-size="14.00"> kill(pid, (SIGKILL &#45;&gt; 9))</text>
<text text-anchor="start" x="1130.4" y="-348.3" font-family="Times,serif" font-size="14.00"> close(0)</text>
<text text-anchor="start" x="1130.4" y="-333.3" font-family="Times,serif" font-size="14.00"> stream = fdopen(fd, &quot;r&quot;)</text>
<text text-anchor="start" x="1130.4" y="-318.3" font-family="Times,serif" font-size="14.00"> memset(BitCastExpr&lt;ptr&gt;(&amp;(str)), 0, 2000)</text>
</g>
<!-- Node0x1c10f50&#45;&gt;Node0x1c115c0 -->
<g id="edge49" class="edge"><title>Node0x1c10f50&#45;&gt;Node0x1c115c0</title>
<path fill="none" stroke="black" d="M1360.22,-581.462C1367.11,-576.52 1373.4,-570.406 1377.4,-563 1388.36,-542.668 1442.42,-609.822 1373.4,-446 1369.04,-435.653 1362.82,-425.81 1355.74,-416.732"/>
<polygon fill="black" stroke="black" points="1358.39,-414.444 1349.33,-408.958 1352.99,-418.899 1358.39,-414.444"/>
<text text-anchor="middle" x="1433.9" y="-484.3" font-family="Times,serif" font-size="14.00">pid != 0</text>
</g>
<!-- Node0x1c153d0&#45;&gt;Node0x1c115c0 -->
<g id="edge50" class="edge"><title>Node0x1c153d0&#45;&gt;Node0x1c115c0</title>
<path fill="none" stroke="black" d="M1283.58,-446.278C1284.49,-437.473 1285.46,-427.999 1286.42,-418.672"/>
<polygon fill="black" stroke="black" points="1289.91,-418.954 1287.45,-408.648 1282.94,-418.238 1289.91,-418.954"/>
</g>
<!-- Node0x1c11760 -->
<g id="node42" class="node"><title>Node0x1c11760</title>
<polygon fill="none" stroke="black" points="1205.9,-234.5 1205.9,-272.5 1378.9,-272.5 1378.9,-234.5 1205.9,-234.5"/>
<text text-anchor="start" x="1213.9" y="-257.3" font-family="Times,serif" font-size="14.00">if (stream == NULL):</text>
<text text-anchor="start" x="1213.9" y="-242.3" font-family="Times,serif" font-size="14.00"> else:</text>
</g>
<!-- Node0x1c115c0&#45;&gt;Node0x1c11760 -->
<g id="edge51" class="edge"><title>Node0x1c115c0&#45;&gt;Node0x1c11760</title>
<path fill="none" stroke="black" d="M1292.4,-310.458C1292.4,-300.952 1292.4,-291.27 1292.4,-282.69"/>
<polygon fill="black" stroke="black" points="1295.9,-282.509 1292.4,-272.509 1288.9,-282.509 1295.9,-282.509"/>
</g>
<!-- Node0x1c11160 -->
<g id="node43" class="node"><title>Node0x1c11160</title>
<polygon fill="none" stroke="black" points="1144.4,-144.5 1144.4,-182.5 1296.4,-182.5 1296.4,-144.5 1144.4,-144.5"/>
<text text-anchor="start" x="1152.4" y="-167.3" font-family="Times,serif" font-size="14.00">0x8048d30:</text>
<text text-anchor="start" x="1152.4" y="-152.3" font-family="Times,serif" font-size="14.00"> str = 1818845542</text>
</g>
<!-- Node0x1c11760&#45;&gt;Node0x1c11160 -->
<g id="edge52" class="edge"><title>Node0x1c11760&#45;&gt;Node0x1c11160</title>
<path fill="none" stroke="black" d="M1277.48,-234.266C1267.15,-221.641 1253.24,-204.646 1241.74,-190.591"/>
<polygon fill="black" stroke="black" points="1244.34,-188.234 1235.3,-182.71 1238.92,-192.666 1244.34,-188.234"/>
<text text-anchor="middle" x="1324.9" y="-204.8" font-family="Times,serif" font-size="14.00">stream == NULL</text>
</g>
<!-- Node0x1c11240 -->
<g id="node44" class="node"><title>Node0x1c11240</title>
<polygon fill="none" stroke="black" points="1314.4,-144.5 1314.4,-182.5 1694.4,-182.5 1694.4,-144.5 1314.4,-144.5"/>
<text text-anchor="start" x="1322.4" y="-167.3" font-family="Times,serif" font-size="14.00">0x8048d64:</text>
<text text-anchor="start" x="1322.4" y="-152.3" font-family="Times,serif" font-size="14.00"> fread(BitCastExpr&lt;ptr&gt;(&amp;(str)), 1, 1999, stream)</text>
</g>
<!-- Node0x1c11760&#45;&gt;Node0x1c11240 -->
<g id="edge53" class="edge"><title>Node0x1c11760&#45;&gt;Node0x1c11240</title>
<path fill="none" stroke="black" d="M1344.35,-234.442C1359.9,-228.793 1376.93,-222.366 1392.4,-216 1414.18,-207.034 1437.94,-196.257 1457.94,-186.885"/>
<polygon fill="black" stroke="black" points="1459.59,-189.978 1467.14,-182.55 1456.6,-183.646 1459.59,-189.978"/>
<text text-anchor="middle" x="1487.9" y="-204.8" font-family="Times,serif" font-size="14.00">stream != NULL</text>
</g>
<!-- Node0x1bf4a40 -->
<g id="node45" class="node"><title>Node0x1bf4a40</title>
<polygon fill="none" stroke="black" points="1164.4,-23.5 1164.4,-106.5 1844.4,-106.5 1844.4,-23.5 1164.4,-23.5"/>
<text text-anchor="start" x="1172.4" y="-91.3" font-family="Times,serif" font-size="14.00">len3 = strlen(BitCastExpr&lt;ptr&gt;(&amp;(str)))</text>
<text text-anchor="start" x="1172.4" y="-76.3" font-family="Times,serif" font-size="14.00"> sendto(sock_fd, BitCastExpr&lt;ptr&gt;(&amp;(str)), len3, 0, BitCastExpr&lt;ptr&gt;(&amp;(addr2)), addr_len)</text>
<text text-anchor="start" x="1172.4" y="-61.3" font-family="Times,serif" font-size="14.00"> v2 = v5</text>
<text text-anchor="start" x="1172.4" y="-46.3" font-family="Times,serif" font-size="14.00"> v4 = v9</text>
<text text-anchor="start" x="1172.4" y="-31.3" font-family="Times,serif" font-size="14.00"> goto 0x804894a_4</text>
</g>
<!-- Node0x1c11160&#45;&gt;Node0x1bf4a40 -->
<g id="edge54" class="edge"><title>Node0x1c11160&#45;&gt;Node0x1bf4a40</title>
<path fill="none" stroke="black" d="M1273.48,-144.462C1302.37,-134.647 1339.47,-122.041 1375.44,-109.818"/>
<polygon fill="black" stroke="black" points="1376.71,-113.083 1385.05,-106.552 1374.46,-106.456 1376.71,-113.083"/>
</g>
<!-- Node0x1c11240&#45;&gt;Node0x1bf4a40 -->
<g id="edge55" class="edge"><title>Node0x1c11240&#45;&gt;Node0x1bf4a40</title>
<path fill="none" stroke="black" d="M1504.4,-144.349C1504.4,-136.488 1504.4,-126.852 1504.4,-117.061"/>
<polygon fill="black" stroke="black" points="1507.9,-116.87 1504.4,-106.87 1500.9,-116.87 1507.9,-116.87"/>
</g>
<!-- Node0x1bf4a40&#45;&gt;Node0x1c6f5c0 -->
<g id="edge56" class="edge"><title>Node0x1bf4a40&#45;&gt;Node0x1c6f5c0</title>
<path fill="none" stroke="black" d="M1693.9,-106.803C1711.21,-120.412 1722.4,-138.494 1722.4,-162.5 1722.4,-2817.5 1722.4,-2817.5 1722.4,-2817.5 1722.4,-2833.81 1716.19,-2849.75 1707.87,-2863.8"/>
<polygon fill="black" stroke="black" points="1704.89,-2861.97 1702.46,-2872.28 1710.79,-2865.74 1704.89,-2861.97"/>
</g>
<!-- Node0x1b7db00 -->
<g id="node46" class="node"><title>Node0x1b7db00</title>
<polygon fill="none" stroke="black" points="1604.4,-3723 1604.4,-3759 1658.4,-3759 1658.4,-3723 1604.4,-3723"/>
<text text-anchor="start" x="1612.4" y="-3737.3" font-family="Times,serif" font-size="14.00">exit:</text>
</g>
</g>
</svg>
