<?xml version="1.0" encoding="UTF-8" standalone="no"?>
<!DOCTYPE svg PUBLIC "-//W3C//DTD SVG 1.1//EN"
 "http://www.w3.org/Graphics/SVG/1.1/DTD/svg11.dtd">
<!-- Generated by graphviz version 2.38.0 (20140413.2041)
 -->
<!-- Title: Call graph of the module. Pages: 1 -->
<svg width="1663pt" height="214pt"
 viewBox="0.00 0.00 1662.50 214.00" xmlns="http://www.w3.org/2000/svg" xmlns:xlink="http://www.w3.org/1999/xlink">
<g id="graph0" class="graph" transform="scale(1 1) rotate(0) translate(4 210)">
<title>Call graph of the module.</title>
<polygon fill="white" stroke="none" points="-4,4 -4,-210 1658.5,-210 1658.5,4 -4,4"/>
<text text-anchor="middle" x="827.25" y="-7.8" font-family="Times,serif" font-size="14.00">Call graph of the module.</text>
<!-- Node_die -->
<g id="node1" class="node"><title>Node_die</title>
<polygon fill="none" stroke="black" points="117.5,-96.5 117.5,-132.5 171.5,-132.5 171.5,-96.5 117.5,-96.5"/>
<text text-anchor="middle" x="144.5" y="-110.8" font-family="Times,serif" font-size="14.00">die</text>
</g>
<!-- Node_fflush -->
<g id="node5" class="node"><title>Node_fflush</title>
<polygon fill="none" stroke="#7f7f7f" points="0,-23.5 0,-59.5 57,-59.5 57,-23.5 0,-23.5"/>
<text text-anchor="middle" x="28.5" y="-37.8" font-family="Times,serif" font-size="14.00" fill="#7f7f7f">fflush</text>
</g>
<!-- Node_die&#45;&gt;Node_fflush -->
<g id="edge1" class="edge"><title>Node_die&#45;&gt;Node_fflush</title>
<path fill="none" stroke="black" d="M117.303,-96.8537C101.678,-87.2902 81.8519,-75.1551 64.8984,-64.7783"/>
<polygon fill="black" stroke="black" points="66.6885,-61.7705 56.3321,-59.5352 63.0342,-67.7409 66.6885,-61.7705"/>
</g>
<!-- Node_perror -->
<g id="node9" class="node"><title>Node_perror</title>
<polygon fill="none" stroke="#7f7f7f" points="75.5,-23.5 75.5,-59.5 137.5,-59.5 137.5,-23.5 75.5,-23.5"/>
<text text-anchor="middle" x="106.5" y="-37.8" font-family="Times,serif" font-size="14.00" fill="#7f7f7f">perror</text>
</g>
<!-- Node_die&#45;&gt;Node_perror -->
<g id="edge2" class="edge"><title>Node_die&#45;&gt;Node_perror</title>
<path fill="none" stroke="black" d="M135.301,-96.3129C130.82,-87.9407 125.338,-77.6971 120.363,-68.4026"/>
<polygon fill="black" stroke="black" points="123.419,-66.6939 115.614,-59.5288 117.247,-69.9971 123.419,-66.6939"/>
</g>
<!-- Node_puts -->
<g id="node11" class="node"><title>Node_puts</title>
<polygon fill="none" stroke="#7f7f7f" points="155.5,-23.5 155.5,-59.5 209.5,-59.5 209.5,-23.5 155.5,-23.5"/>
<text text-anchor="middle" x="182.5" y="-37.8" font-family="Times,serif" font-size="14.00" fill="#7f7f7f">puts</text>
</g>
<!-- Node_die&#45;&gt;Node_puts -->
<g id="edge3" class="edge"><title>Node_die&#45;&gt;Node_puts</title>
<path fill="none" stroke="black" d="M153.699,-96.3129C158.18,-87.9407 163.662,-77.6971 168.637,-68.4026"/>
<polygon fill="black" stroke="black" points="171.753,-69.9971 173.386,-59.5288 165.581,-66.6939 171.753,-69.9971"/>
</g>
<!-- Node_exit -->
<g id="node12" class="node"><title>Node_exit</title>
<polygon fill="none" stroke="#7f7f7f" points="227.5,-23.5 227.5,-59.5 281.5,-59.5 281.5,-23.5 227.5,-23.5"/>
<text text-anchor="middle" x="254.5" y="-37.8" font-family="Times,serif" font-size="14.00" fill="#7f7f7f">exit</text>
</g>
<!-- Node_die&#45;&gt;Node_exit -->
<g id="edge4" class="edge"><title>Node_die&#45;&gt;Node_exit</title>
<path fill="none" stroke="black" d="M170.848,-96.4937C185.435,-87.0785 203.752,-75.2554 219.525,-65.0748"/>
<polygon fill="black" stroke="black" points="221.482,-67.9773 227.986,-59.6136 217.686,-62.096 221.482,-67.9773"/>
</g>
<!-- Node_main -->
<g id="node2" class="node"><title>Node_main</title>
<polygon fill="none" stroke="black" points="860.5,-169.5 860.5,-205.5 914.5,-205.5 914.5,-169.5 860.5,-169.5"/>
<text text-anchor="middle" x="887.5" y="-183.8" font-family="Times,serif" font-size="14.00">main</text>
</g>
<!-- Node_main&#45;&gt;Node_die -->
<g id="edge5" class="edge"><title>Node_main&#45;&gt;Node_die</title>
<path fill="none" stroke="black" d="M860.38,-185.806C749.752,-182.773 331.771,-169.28 181.528,-132.554"/>
<polygon fill="black" stroke="black" points="182.16,-129.102 171.602,-129.985 180.406,-135.879 182.16,-129.102"/>
</g>
<!-- Node_dup2 -->
<g id="node3" class="node"><title>Node_dup2</title>
<polygon fill="none" stroke="#7f7f7f" points="189.5,-96.5 189.5,-132.5 243.5,-132.5 243.5,-96.5 189.5,-96.5"/>
<text text-anchor="middle" x="216.5" y="-110.8" font-family="Times,serif" font-size="14.00" fill="#7f7f7f">dup2</text>
</g>
<!-- Node_main&#45;&gt;Node_dup2 -->
<g id="edge6" class="edge"><title>Node_main&#45;&gt;Node_dup2</title>
<path fill="none" stroke="black" d="M860.321,-185.537C757.051,-181.68 388.458,-166.047 253.309,-132.511"/>
<polygon fill="black" stroke="black" points="254.171,-129.118 243.609,-129.959 252.39,-135.888 254.171,-129.118"/>
</g>
<!-- Node_strcmp -->
<g id="node4" class="node"><title>Node_strcmp</title>
<polygon fill="none" stroke="#7f7f7f" points="261.5,-96.5 261.5,-132.5 329.5,-132.5 329.5,-96.5 261.5,-96.5"/>
<text text-anchor="middle" x="295.5" y="-110.8" font-family="Times,serif" font-size="14.00" fill="#7f7f7f">strcmp</text>
</g>
<!-- Node_main&#45;&gt;Node_strcmp -->
<g id="edge7" class="edge"><title>Node_main&#45;&gt;Node_strcmp</title>
<path fill="none" stroke="black" d="M860.472,-186.606C781.143,-186.349 542.316,-181.492 339.863,-132.94"/>
<polygon fill="black" stroke="black" points="340.491,-129.491 329.947,-130.52 338.831,-136.291 340.491,-129.491"/>
</g>
<!-- Node_sleep -->
<g id="node6" class="node"><title>Node_sleep</title>
<polygon fill="none" stroke="#7f7f7f" points="347.5,-96.5 347.5,-132.5 401.5,-132.5 401.5,-96.5 347.5,-96.5"/>
<text text-anchor="middle" x="374.5" y="-110.8" font-family="Times,serif" font-size="14.00" fill="#7f7f7f">sleep</text>
</g>
<!-- Node_main&#45;&gt;Node_sleep -->
<g id="edge8" class="edge"><title>Node_main&#45;&gt;Node_sleep</title>
<path fill="none" stroke="black" d="M860.241,-186.649C787.676,-186.379 584.123,-181.269 411.395,-132.678"/>
<polygon fill="black" stroke="black" points="412.211,-129.271 401.633,-129.876 410.279,-135.999 412.211,-129.271"/>
</g>
<!-- Node_recvfrom -->
<g id="node7" class="node"><title>Node_recvfrom</title>
<polygon fill="none" stroke="#7f7f7f" points="419.5,-96.5 419.5,-132.5 501.5,-132.5 501.5,-96.5 419.5,-96.5"/>
<text text-anchor="middle" x="460.5" y="-110.8" font-family="Times,serif" font-size="14.00" fill="#7f7f7f">recvfrom</text>
</g>
<!-- Node_main&#45;&gt;Node_recvfrom -->
<g id="edge9" class="edge"><title>Node_main&#45;&gt;Node_recvfrom</title>
<path fill="none" stroke="black" d="M860.184,-184.468C799.122,-179.536 646.956,-165.084 511.635,-133.009"/>
<polygon fill="black" stroke="black" points="512.051,-129.51 501.509,-130.568 510.41,-136.315 512.051,-129.51"/>
</g>
<!-- Node_htons -->
<g id="node8" class="node"><title>Node_htons</title>
<polygon fill="none" stroke="#7f7f7f" points="519.5,-96.5 519.5,-132.5 575.5,-132.5 575.5,-96.5 519.5,-96.5"/>
<text text-anchor="middle" x="547.5" y="-110.8" font-family="Times,serif" font-size="14.00" fill="#7f7f7f">htons</text>
</g>
<!-- Node_main&#45;&gt;Node_htons -->
<g id="edge10" class="edge"><title>Node_main&#45;&gt;Node_htons</title>
<path fill="none" stroke="black" d="M860.167,-184.139C807.966,-179.111 690.635,-165.314 585.669,-132.931"/>
<polygon fill="black" stroke="black" points="586.467,-129.512 575.877,-129.843 584.362,-136.188 586.467,-129.512"/>
</g>
<!-- Node_fread -->
<g id="node10" class="node"><title>Node_fread</title>
<polygon fill="none" stroke="#7f7f7f" points="593.5,-96.5 593.5,-132.5 647.5,-132.5 647.5,-96.5 593.5,-96.5"/>
<text text-anchor="middle" x="620.5" y="-110.8" font-family="Times,serif" font-size="14.00" fill="#7f7f7f">fread</text>
</g>
<!-- Node_main&#45;&gt;Node_fread -->
<g id="edge11" class="edge"><title>Node_main&#45;&gt;Node_fread</title>
<path fill="none" stroke="black" d="M860.263,-182.239C818.191,-175.223 734.939,-159.614 657.195,-132.848"/>
<polygon fill="black" stroke="black" points="658.339,-129.541 647.744,-129.529 656.019,-136.145 658.339,-129.541"/>
</g>
<!-- Node_kill -->
<g id="node13" class="node"><title>Node_kill</title>
<polygon fill="none" stroke="#7f7f7f" points="665.5,-96.5 665.5,-132.5 719.5,-132.5 719.5,-96.5 665.5,-96.5"/>
<text text-anchor="middle" x="692.5" y="-110.8" font-family="Times,serif" font-size="14.00" fill="#7f7f7f">kill</text>
</g>
<!-- Node_main&#45;&gt;Node_kill -->
<g id="edge12" class="edge"><title>Node_main&#45;&gt;Node_kill</title>
<path fill="none" stroke="black" d="M860.39,-178.538C830.304,-169.452 780.229,-153.592 729.357,-133.119"/>
<polygon fill="black" stroke="black" points="730.434,-129.779 719.853,-129.244 727.791,-136.261 730.434,-129.779"/>
</g>
<!-- Node_fdopen -->
<g id="node14" class="node"><title>Node_fdopen</title>
<polygon fill="none" stroke="#7f7f7f" points="738,-96.5 738,-132.5 803,-132.5 803,-96.5 738,-96.5"/>
<text text-anchor="middle" x="770.5" y="-110.8" font-family="Times,serif" font-size="14.00" fill="#7f7f7f">fdopen</text>
</g>
<!-- Node_main&#45;&gt;Node_fdopen -->
<g id="edge13" class="edge"><title>Node_main&#45;&gt;Node_fdopen</title>
<path fill="none" stroke="black" d="M860.364,-170.033C844.613,-160.474 824.555,-148.303 807.387,-137.884"/>
<polygon fill="black" stroke="black" points="809.075,-134.815 798.711,-132.619 805.444,-140.799 809.075,-134.815"/>
</g>
<!-- Node_strlen -->
<g id="node15" class="node"><title>Node_strlen</title>
<polygon fill="none" stroke="#7f7f7f" points="821,-96.5 821,-132.5 880,-132.5 880,-96.5 821,-96.5"/>
<text text-anchor="middle" x="850.5" y="-110.8" font-family="Times,serif" font-size="14.00" fill="#7f7f7f">strlen</text>
</g>
<!-- Node_main&#45;&gt;Node_strlen -->
<g id="edge14" class="edge"><title>Node_main&#45;&gt;Node_strlen</title>
<path fill="none" stroke="black" d="M878.543,-169.313C874.18,-160.941 868.842,-150.697 863.999,-141.403"/>
<polygon fill="black" stroke="black" points="867.099,-139.779 859.374,-132.529 860.892,-143.014 867.099,-139.779"/>
</g>
<!-- Node_bind -->
<g id="node16" class="node"><title>Node_bind</title>
<polygon fill="none" stroke="#7f7f7f" points="898.5,-96.5 898.5,-132.5 952.5,-132.5 952.5,-96.5 898.5,-96.5"/>
<text text-anchor="middle" x="925.5" y="-110.8" font-family="Times,serif" font-size="14.00" fill="#7f7f7f">bind</text>
</g>
<!-- Node_main&#45;&gt;Node_bind -->
<g id="edge15" class="edge"><title>Node_main&#45;&gt;Node_bind</title>
<path fill="none" stroke="black" d="M896.699,-169.313C901.18,-160.941 906.662,-150.697 911.637,-141.403"/>
<polygon fill="black" stroke="black" points="914.753,-142.997 916.386,-132.529 908.581,-139.694 914.753,-142.997"/>
</g>
<!-- Node_memset -->
<g id="node17" class="node"><title>Node_memset</title>
<polygon fill="none" stroke="#7f7f7f" points="970.5,-96.5 970.5,-132.5 1044.5,-132.5 1044.5,-96.5 970.5,-96.5"/>
<text text-anchor="middle" x="1007.5" y="-110.8" font-family="Times,serif" font-size="14.00" fill="#7f7f7f">memset</text>
</g>
<!-- Node_main&#45;&gt;Node_memset -->
<g id="edge16" class="edge"><title>Node_main&#45;&gt;Node_memset</title>
<path fill="none" stroke="black" d="M914.73,-170.389C930.982,-160.773 951.862,-148.419 969.697,-137.867"/>
<polygon fill="black" stroke="black" points="971.88,-140.642 978.705,-132.537 968.316,-134.617 971.88,-140.642"/>
</g>
<!-- Node_execl -->
<g id="node18" class="node"><title>Node_execl</title>
<polygon fill="none" stroke="#7f7f7f" points="1062.5,-96.5 1062.5,-132.5 1116.5,-132.5 1116.5,-96.5 1062.5,-96.5"/>
<text text-anchor="middle" x="1089.5" y="-110.8" font-family="Times,serif" font-size="14.00" fill="#7f7f7f">execl</text>
</g>
<!-- Node_main&#45;&gt;Node_execl -->
<g id="edge17" class="edge"><title>Node_main&#45;&gt;Node_execl</title>
<path fill="none" stroke="black" d="M914.651,-179.025C946.052,-170.106 999.357,-154.124 1052.88,-132.999"/>
<polygon fill="black" stroke="black" points="1054.18,-136.247 1062.16,-129.281 1051.58,-129.748 1054.18,-136.247"/>
</g>
<!-- Node_pipe -->
<g id="node19" class="node"><title>Node_pipe</title>
<polygon fill="none" stroke="#7f7f7f" points="1134.5,-96.5 1134.5,-132.5 1188.5,-132.5 1188.5,-96.5 1134.5,-96.5"/>
<text text-anchor="middle" x="1161.5" y="-110.8" font-family="Times,serif" font-size="14.00" fill="#7f7f7f">pipe</text>
</g>
<!-- Node_main&#45;&gt;Node_pipe -->
<g id="edge18" class="edge"><title>Node_main&#45;&gt;Node_pipe</title>
<path fill="none" stroke="black" d="M914.838,-182.469C957.945,-175.666 1044.26,-160.23 1124.51,-132.936"/>
<polygon fill="black" stroke="black" points="1125.96,-136.135 1134.26,-129.548 1123.67,-129.523 1125.96,-136.135"/>
</g>
<!-- Node_sendto -->
<g id="node20" class="node"><title>Node_sendto</title>
<polygon fill="none" stroke="#7f7f7f" points="1207,-96.5 1207,-132.5 1272,-132.5 1272,-96.5 1207,-96.5"/>
<text text-anchor="middle" x="1239.5" y="-110.8" font-family="Times,serif" font-size="14.00" fill="#7f7f7f">sendto</text>
</g>
<!-- Node_main&#45;&gt;Node_sendto -->
<g id="edge19" class="edge"><title>Node_main&#45;&gt;Node_sendto</title>
<path fill="none" stroke="black" d="M914.916,-183.854C967.944,-178.295 1088.18,-163.545 1196.92,-132.796"/>
<polygon fill="black" stroke="black" points="1198.1,-136.101 1206.74,-129.968 1196.16,-129.375 1198.1,-136.101"/>
</g>
<!-- Node_fork -->
<g id="node21" class="node"><title>Node_fork</title>
<polygon fill="none" stroke="#7f7f7f" points="1290.5,-96.5 1290.5,-132.5 1344.5,-132.5 1344.5,-96.5 1290.5,-96.5"/>
<text text-anchor="middle" x="1317.5" y="-110.8" font-family="Times,serif" font-size="14.00" fill="#7f7f7f">fork</text>
</g>
<!-- Node_main&#45;&gt;Node_fork -->
<g id="edge20" class="edge"><title>Node_main&#45;&gt;Node_fork</title>
<path fill="none" stroke="black" d="M914.881,-185.752C978.42,-183.395 1140.53,-173.814 1280.72,-132.69"/>
<polygon fill="black" stroke="black" points="1281.77,-136.029 1290.35,-129.806 1279.76,-129.323 1281.77,-136.029"/>
</g>
<!-- Node_htonl -->
<g id="node22" class="node"><title>Node_htonl</title>
<polygon fill="none" stroke="#7f7f7f" points="1362.5,-96.5 1362.5,-132.5 1416.5,-132.5 1416.5,-96.5 1362.5,-96.5"/>
<text text-anchor="middle" x="1389.5" y="-110.8" font-family="Times,serif" font-size="14.00" fill="#7f7f7f">htonl</text>
</g>
<!-- Node_main&#45;&gt;Node_htonl -->
<g id="edge21" class="edge"><title>Node_main&#45;&gt;Node_htonl</title>
<path fill="none" stroke="black" d="M914.657,-186.549C985.972,-186.019 1184.11,-180.301 1352.59,-132.688"/>
<polygon fill="black" stroke="black" points="1353.73,-136.003 1362.36,-129.868 1351.79,-129.277 1353.73,-136.003"/>
</g>
<!-- Node_sprintf -->
<g id="node23" class="node"><title>Node_sprintf</title>
<polygon fill="none" stroke="#7f7f7f" points="1435,-96.5 1435,-132.5 1500,-132.5 1500,-96.5 1435,-96.5"/>
<text text-anchor="middle" x="1467.5" y="-110.8" font-family="Times,serif" font-size="14.00" fill="#7f7f7f">sprintf</text>
</g>
<!-- Node_main&#45;&gt;Node_sprintf -->
<g id="edge22" class="edge"><title>Node_main&#45;&gt;Node_sprintf</title>
<path fill="none" stroke="black" d="M914.571,-186.607C992.931,-186.334 1226.45,-181.405 1425.07,-132.634"/>
<polygon fill="black" stroke="black" points="1425.95,-136.022 1434.8,-130.202 1424.25,-129.231 1425.95,-136.022"/>
</g>
<!-- Node_socket -->
<g id="node24" class="node"><title>Node_socket</title>
<polygon fill="none" stroke="#7f7f7f" points="1518.5,-96.5 1518.5,-132.5 1582.5,-132.5 1582.5,-96.5 1518.5,-96.5"/>
<text text-anchor="middle" x="1550.5" y="-110.8" font-family="Times,serif" font-size="14.00" fill="#7f7f7f">socket</text>
</g>
<!-- Node_main&#45;&gt;Node_socket -->
<g id="edge23" class="edge"><title>Node_main&#45;&gt;Node_socket</title>
<path fill="none" stroke="black" d="M914.789,-185.304C1016.66,-180.667 1375.23,-162.75 1508.22,-132.776"/>
<polygon fill="black" stroke="black" points="1509.23,-136.133 1518.15,-130.408 1507.61,-129.324 1509.23,-136.133"/>
</g>
<!-- Node_close -->
<g id="node25" class="node"><title>Node_close</title>
<polygon fill="none" stroke="#7f7f7f" points="1600.5,-96.5 1600.5,-132.5 1654.5,-132.5 1654.5,-96.5 1600.5,-96.5"/>
<text text-anchor="middle" x="1627.5" y="-110.8" font-family="Times,serif" font-size="14.00" fill="#7f7f7f">close</text>
</g>
<!-- Node_main&#45;&gt;Node_close -->
<g id="edge24" class="edge"><title>Node_main&#45;&gt;Node_close</title>
<path fill="none" stroke="black" d="M914.505,-185.799C1024.66,-182.739 1440.87,-169.155 1590.51,-132.544"/>
<polygon fill="black" stroke="black" points="1591.59,-135.88 1600.4,-129.984 1589.84,-129.103 1591.59,-135.88"/>
</g>
</g>
</svg>
